<?xml version="1.0" standalone="no"?><!DOCTYPE svg PUBLIC "-//W3C//DTD SVG 1.1//EN" "http://www.w3.org/Graphics/SVG/1.1/DTD/svg11.dtd"><svg t="1743763187269" class="icon" viewBox="0 0 1099 1024" version="1.1" xmlns="http://www.w3.org/2000/svg" p-id="4913" xmlns:xlink="http://www.w3.org/1999/xlink" width="214.6484375" height="200"><path d="M841.66 313.7 676.06 189.2c-3.7-2.8-8.1-4.3-12.7-4.3L277.56 185c-8.5 0-16.7 5.9-16.7 16.8l0 618.8c0 13.9 12 27.2 27.3 27.2l552.2 0c8.8 0 14.8-4.3 14.8-14.2L855.16 330.1C855.06 323.4 847.06 317.7 841.66 313.7zM682.36 257.7l0 124.5c0 4.9-2.4 9.2-7.8 9.2l-262 0c-7.2 0-8.2-3.8-8.2-9.5l0-145.1 248.4 0L682.36 257.7zM804.66 778.6c0 10.7-6.5 18-16.9 18l-461 0c-8.1 0.1-13.5-5.8-13.5-14.5L313.26 248.4c0-7.1 6.6-11.5 15.3-11.5 7.5 0 17 0 27.7 0l0.1 190.4c0 6.9 4.3 10.1 10.8 10.1l346.1-0.1c6.8 0.1 10.7-5 10.5-12.7l0.1-135.2 80.8 60.4L804.66 778.6zM371.56 621.2l188.7 0c6.7 0 11.2-4.3 11.2-10.4 0-5.2 0-20.1 0-25.7 0-6.6-7-10.8-13.2-10.8L370.16 574.3c-7.8 0-11.7 4.9-11.7 10.8 0 6.4 0 21.7 0 25.4C358.46 616.5 363.16 621.2 371.56 621.2zM709.86 574.3l-95 0c-8.2 0-14.1 4.7-14.1 11.3 0 4.7 0 19 0 23.8 0 8.1 6.3 11.9 13.6 11.9l94.3 0c8.4 0 15.2-5.9 15.2-13.2 0-6.2 0-11.8 0-18.9C723.96 581.2 718.46 574.3 709.86 574.3zM480.06 698.5 371.76 698.5c-8.3 0-13.4 4.3-13.4 13.3 0 6 0 12.2 0 17.3 0 8.9 5.4 14.4 13.7 14.4l105.6 0c7.9 0 15.1-5.3 15.1-14 0-6.7 0-11.6 0-16.3C492.76 705 486.06 698.5 480.06 698.5zM709.06 698.5 533.56 698.5c-8.9 0-14.2 6.5-14.2 14.1 0 4.4 0 12.5 0 17.3 0 6.2 5.6 13.6 14.5 13.6l174 0c8.9 0 16-6.3 16-15.4 0-4.1 0-8.7 0-14.9C723.96 704.8 718.66 698.5 709.06 698.5zM627.46 360.4c7.3 0 13.2-6.1 13.2-11.4L640.66 277.4c0-7.4-4.1-11.5-10.3-11.5-5.1 0-24.9 0-29.3 0-6.2 0-9.2 4.5-9.2 11.4l0 71.9c0 6.4 6.3 11.3 11.9 11.3C608.56 360.4 622.06 360.4 627.46 360.4z" p-id="4914" fill="#7F7F7F"></path></svg>